HIERARCHY
ROOT Hips
{
 OFFSET 0.000000 0.000000 0.000000
 CHANNELS 6 Xposition Yposition Zposition Yrotation Xrotation Zrotation
 JOINT Chest
 {
  OFFSET 0.000000 9.585900 0.002600
  CHANNELS 3 Yrotation Xrotation Zrotation
  JOINT Chest2
  {
   OFFSET 0.000000 9.601200 -0.005300
   CHANNELS 3 Yrotation Xrotation Zrotation
   JOINT Chest3
   {
    OFFSET 0.000000 9.561800 0.000000
    CHANNELS 3 Yrotation Xrotation Zrotation
    JOINT Chest4
    {
     OFFSET 0.000000 9.552100 0.000000
     CHANNELS 3 Yrotation Xrotation Zrotation
     JOINT Neck
     {
      OFFSET 0.000000 14.453000 0.000000
      CHANNELS 3 Yrotation Xrotation Zrotation
      JOINT Head
      {
       OFFSET 0.000000 8.936500 -0.011300
       CHANNELS 3 Yrotation Xrotation Zrotation
       End Site
       {
        OFFSET 0.000000 17.073600 -0.006000
       }
      }
     }
     JOINT RightCollar
     {
      OFFSET -2.921100 9.558500 0.000000
      CHANNELS 3 Yrotation Xrotation Zrotation
      JOINT RightShoulder
      {
       OFFSET -13.519700 0.000000 0.000000
       CHANNELS 3 Yrotation Xrotation Zrotation
       JOINT RightElbow
       {
        OFFSET 0.000000 -29.696600 0.000000
        CHANNELS 3 Yrotation Xrotation Zrotation
        JOINT RightWrist
        {
         OFFSET 0.000000 -24.004700 0.000000
         CHANNELS 3 Yrotation Xrotation Zrotation
         End Site
         {
          OFFSET 0.000000 -17.728500 0.000000
         }
        }
       }
      }
     }
     JOINT LeftCollar
     {
      OFFSET 2.921100 9.558500 0.000000
      CHANNELS 3 Yrotation Xrotation Zrotation
      JOINT LeftShoulder
      {
       OFFSET 13.519700 0.000000 0.000000
       CHANNELS 3 Yrotation Xrotation Zrotation
       JOINT LeftElbow
       {
        OFFSET 0.000000 -29.696600 0.000000
        CHANNELS 3 Yrotation Xrotation Zrotation
        JOINT LeftWrist
        {
         OFFSET 0.000000 -24.004700 0.000000
         CHANNELS 3 Yrotation Xrotation Zrotation
         End Site
         {
          OFFSET 0.000000 -17.728500 0.000000
         }
        }
       }
      }
     }
    }
   }
  }
 }
 JOINT RightHip
 {
  OFFSET -7.771700 -0.012900 -0.001300
  CHANNELS 3 Yrotation Xrotation Zrotation
  JOINT RightKnee
  {
   OFFSET 0.000000 -40.869800 0.001200
   CHANNELS 3 Yrotation Xrotation Zrotation
   JOINT RightAnkle
   {
    OFFSET 0.000000 -39.717900 0.002100
    CHANNELS 3 Yrotation Xrotation Zrotation
    JOINT RightToe
    {
     OFFSET 0.000000 -4.965400 11.033500
     CHANNELS 3 Yrotation Xrotation Zrotation
     End Site
     {
      OFFSET 0.000000 -1.423100 5.872300
     }
    }
   }
  }
 }
 JOINT LeftHip
 {
  OFFSET 7.771700 -0.012900 -0.001300
  CHANNELS 3 Yrotation Xrotation Zrotation
  JOINT LeftKnee
  {
   OFFSET 0.000000 -40.869800 0.001200
   CHANNELS 3 Yrotation Xrotation Zrotation
   JOINT LeftAnkle
   {
    OFFSET 0.000000 -39.717900 0.002100
    CHANNELS 3 Yrotation Xrotation Zrotation
    JOINT LeftToe
    {
     OFFSET 0.000000 -4.965400 11.033500
     CHANNELS 3 Yrotation Xrotation Zrotation
     End Site
     {
      OFFSET 0.000000 -1.423100 5.872300
     }
    }
   }
  }
 }
}
MOTION
Frames: 12
Frame Time: 0.008333
0.000000 85.388000 0.000000 0.000000 -5.767877 0.000000 0.000000 11.653817 0.000000 0.000000 -5.885947 0.000000 0.000000 -0.000000 0.000000 0.000000 -0.000000 0.000000 0.000000 12.528835 0.000000 0.000000 0.711642 0.000000 0.000000 -0.000000 0.000000 0.000000 0.000000 -90.000000 0.000000 -2.309062 0.000000 0.000000 2.309062 0.000000 0.000000 -0.000000 0.000000 0.000000 -0.000000 90.000000 0.000000 -2.309062 0.000000 0.000000 2.309062 0.000000 0.000000 8.520406 0.000000 0.000000 1.905762 0.000000 -0.000000 -4.658285 0.000000 0.000000 -0.000000 0.000000 0.000000 8.520406 0.000000 0.000000 1.905762 0.000000 -0.000000 -4.658285 0.000000 0.000000 -0.000000 0.000000
-43.361592 57.910023 12.049483 177.675459 -51.475031 -3.745611 3.364176 22.803245 3.375778 1.707376 13.063372 1.734803 2.212104 16.284203 2.218866 1.710424 13.076509 1.750984 0.989566 15.924987 3.480315 0.542019 -6.248468 6.025780 1.597483 4.235503 -0.148716 -11.127997 -13.974744 -6.071895 -34.156233 -8.271063 97.722200 -10.418950 -11.431210 -18.803148 -10.217151 0.329135 -0.167177 7.741715 -10.161816 8.706500 32.757841 -9.561471 -91.210761 14.322178 -10.854070 12.854928 3.894984 -20.066438 -2.407571 -33.518825 73.632424 -37.342042 5.823845 -14.775601 11.261981 -0.015973 -0.008420 -0.008648 -7.346296 -17.438773 5.812539 86.921075 80.975267 86.733711 0.971955 -21.569378 -18.878960 0.010108 0.005249 0.007803
-43.361289 57.910134 12.049469 177.682014 -51.459302 -3.749285 3.358887 22.797938 3.377975 1.705709 13.075432 1.745564 2.207823 16.286624 2.221494 1.710925 13.078707 1.755334 0.954214 15.881750 3.415253 0.503145 -6.329605 5.916413 1.599351 4.211652 -0.171051 -11.017667 -13.910369 -6.136642 -34.245095 -8.792707 97.769816 -10.525032 -11.168593 -18.746480 -10.211865 0.312546 -0.168612 7.743857 -10.148857 8.693314 32.738172 -9.566322 -91.198933 14.304484 -10.826251 12.881595 3.896986 -20.080275 -2.408138 -33.515386 73.635659 -37.335147 5.811154 -14.780171 11.257628 -0.019612 -0.008552 -0.004820 -7.350555 -17.454310 5.813841 86.920528 80.974389 86.733799 0.974747 -21.568602 -18.880741 0.007695 0.005946 0.007578
-43.361773 57.908942 12.050479 177.675484 -51.431816 -3.738167 3.357834 22.811026 3.393408 1.704126 13.057220 1.735977 2.208733 16.312480 2.247483 1.704155 13.057228 1.735908 0.916924 15.839697 3.353039 0.463286 -6.414863 5.805850 1.617036 4.189970 -0.182946 -10.953746 -13.865241 -6.189297 -34.310994 -9.314809 97.810252 -10.615888 -10.869593 -18.727165 -10.216330 0.312414 -0.151526 7.752143 -10.155417 8.660565 32.723334 -9.573598 -91.185584 14.294687 -10.798138 12.917286 3.910827 -20.107359 -2.413919 -33.524962 73.637242 -37.340771 5.796754 -14.790137 11.252871 -0.011739 -0.001799 0.002982 -7.347014 -17.482747 5.811598 86.939502 80.972677 86.753787 0.972832 -21.572334 -18.882146 0.010945 0.006817 0.007373
-43.362211 57.908661 12.050869 177.673731 -51.409199 -3.731354 3.356330 22.807303 3.397665 1.702458 13.049313 1.731937 2.210007 16.318271 2.254258 1.704728 13.062192 1.743443 0.862433 15.774029 3.247165 0.435428 -6.476335 5.736063 1.642701 4.172923 -0.193639 -10.902316 -13.823221 -6.234361 -34.381728 -9.848900 97.851161 -10.702559 -10.530731 -18.743876 -10.223222 0.292460 -0.162498 7.754307 -10.153721 8.657020 32.707181 -9.570185 -91.162493 14.281282 -10.769908 12.954014 3.917983 -20.129241 -2.420343 -33.526693 73.635989 -37.342025 5.799731 -14.795600 11.254564 -0.011933 0.000868 0.002679 -7.348427 -17.505980 5.809227 86.911113 80.981073 86.726959 0.979441 -21.569531 -18.884961 0.011774 0.007545 0.007746
-43.362612 57.909166 12.050733 177.670219 -51.391462 -3.724247 3.356013 22.802590 3.400347 1.701842 13.046388 1.729979 2.208377 16.313762 2.251774 1.707978 13.074525 1.759748 0.828997 15.729763 3.182865 0.394564 -6.558851 5.629471 1.664173 4.159471 -0.201753 -10.845754 -13.782865 -6.279111 -34.456154 -10.396995 97.890373 -10.794752 -10.162673 -18.778340 -10.227261 0.284012 -0.159539 7.762647 -10.138977 8.643501 32.694704 -9.587886 -91.157080 14.275250 -10.740288 12.989952 3.927116 -20.145585 -2.426513 -33.530405 73.632831 -37.341557 5.804325 -14.801861 11.253226 -0.015571 0.007117 0.004005 -7.346101 -17.523819 5.806284 86.911560 80.979332 86.726138 0.980830 -21.570390 -18.887515 0.008856 0.008464 0.009202
-43.362768 57.910301 12.050197 177.667282 -51.377863 -3.720394 3.356167 22.793086 3.400772 1.701804 13.058729 1.741213 2.206018 16.314280 2.254225 1.704950 13.066775 1.751882 0.800946 15.693714 3.127758 0.350552 -6.641318 5.524637 1.682483 4.158456 -0.202582 -10.780140 -13.746590 -6.323325 -34.530762 -10.956408 97.927287 -10.900841 -9.790425 -18.799413 -10.218709 0.297927 -0.129771 7.766985 -10.106210 8.615887 32.673906 -9.625449 -91.149811 14.275084 -10.719879 12.996163 3.953419 -20.155693 -2.435503 -33.554698 73.628785 -37.343069 5.809125 -14.810680 11.250969 -0.020183 0.011505 0.003511 -7.346121 -17.536611 5.808630 86.908712 80.979715 86.720936 0.980631 -21.571040 -18.888260 0.007134 0.009291 0.010487
-43.363257 57.912363 12.048922 177.666808 -51.371173 -3.718000 3.353768 22.804420 3.407832 1.701403 13.058572 1.743975 2.215526 16.330970 2.273697 1.689467 13.041828 1.729874 0.772285 15.657649 3.071456 0.301701 -6.723877 5.422686 1.698519 4.160811 -0.208188 -10.714152 -13.716489 -6.367059 -34.588980 -11.514020 97.957789 -11.012962 -9.454430 -18.779747 -10.213952 0.301637 -0.118017 7.764608 -10.104546 8.597896 32.666240 -9.633175 -91.139239 14.273123 -10.706819 13.000832 3.967929 -20.160247 -2.439535 -33.567847 73.627777 -37.349406 5.809254 -14.815327 11.256209 -0.011188 0.008690 0.002314 -7.346363 -17.543250 5.808222 86.906866 80.978448 86.717479 0.979386 -21.569826 -18.887768 0.009326 0.007984 0.009490
-43.365098 57.912876 12.048723 177.667415 -51.353179 -3.710351 3.356267 22.818635 3.416838 1.699325 13.044224 1.739696 2.209853 16.322297 2.269438 1.697878 13.050369 1.738026 0.737608 15.619295 3.024164 0.248346 -6.813426 5.310170 1.726884 4.155065 -0.207870 -10.678771 -13.694069 -6.421324 -34.614392 -12.059042 97.980639 -11.120684 -9.185076 -18.708786 -10.220972 0.296565 -0.108471 7.764740 -10.102902 8.579987 32.660302 -9.643294 -91.135483 14.270142 -10.693965 13.010823 3.976893 -20.176530 -2.448665 -33.561753 73.634829 -37.344826 5.786712 -14.829242 11.260009 -0.010694 0.004521 0.001041 -7.344177 -17.563319 5.806543 86.916713 80.981400 86.724792 0.973544 -21.571406 -18.883308 0.012348 0.005584 0.007876
-43.366278 57.911128 12.050462 177.669752 -51.317385 -3.710043 3.354373 22.801623 3.422038 1.698621 13.044011 1.743197 2.206344 16.312859 2.265172 1.701838 13.057635 1.750012 0.718293 15.596663 2.993772 0.189341 -6.917564 5.177478 1.734243 4.142622 -0.219717 -10.626478 -13.666684 -6.476130 -34.615947 -12.594021 98.001870 -11.230216 -8.975159 -18.595286 -10.224147 0.291020 -0.108217 7.774935 -10.069184 8.564487 32.657578 -9.680449 -91.159953 14.256332 -10.662830 13.050526 3.981790 -20.209895 -2.454667 -33.566436 73.634648 -37.345234 5.793095 -14.858606 11.248692 -0.015217 0.021398 0.009206 -7.344138 -17.602075 5.812656 86.925879 80.985056 86.737093 0.975384 -21.573478 -18.884997 0.010675 0.008400 0.009564
-43.367493 57.910783 12.051080 177.669430 -51.292525 -3.708329 3.355703 22.795736 3.428329 1.701729 13.060224 1.756462 2.198575 16.293467 2.258446 1.700760 13.057007 1.752430 0.682919 15.553405 2.930506 0.144590 -6.998925 5.079243 1.734542 4.129472 -0.232760 -10.567787 -13.640467 -6.530960 -34.606516 -13.119909 98.027299 -11.344384 -8.803237 -18.459467 -10.226216 0.285326 -0.108722 7.776253 -10.072442 8.549973 32.647023 -9.688056 -91.145361 14.251379 -10.628130 13.067255 4.010300 -20.233556 -2.454617 -33.630768 73.629111 -37.390408 5.796354 -14.871553 11.248150 -0.007860 0.021474 0.011542 -7.341930 -17.630432 5.816344 86.971130 80.978007 86.776893 0.961830 -21.576001 -18.874329 0.007618 0.006634 0.008091
-43.369051 57.910912 12.051305 177.668534 -51.271169 -3.704730 3.354335 22.779788 3.425927 1.702360 13.064031 1.759484 2.203577 16.302577 2.265529 1.710686 13.068452 1.768818 0.635481 15.495802 2.858415 0.096139 -7.079785 4.989168 1.721493 4.100852 -0.252730 -10.506503 -13.618982 -6.587415 -34.594522 -13.630819 98.058328 -11.456338 -8.649612 -18.320784 -10.239732 0.260965 -0.114460 7.786806 -10.055306 8.533588 32.622637 -9.730741 -91.118032 14.268172 -10.604060 13.056131 4.027162 -20.255084 -2.457974 -33.655900 73.632067 -37.408684 5.793058 -14.879198 11.252569 -0.010453 0.014824 0.008216 -7.339972 -17.653850 5.817188 86.979865 80.980376 86.784312 0.954066 -21.572463 -18.870868 0.003826 0.002832 0.008022
